<svg xmlns="http://www.w3.org/2000/svg" version="1.1" xmlns:xlink="http://www.w3.org/1999/xlink" xmlns:svgjs="http://svgjs.com/svgjs" width="1000" height="1000"><rect width="1000" height="1000" rx="250" ry="250" fill="#caf0fe"></rect><g transform="matrix(1.2531328320802004,0,0,1.2531328320802004,-7.6455068564355315,120.64003843723384)"><svg xmlns="http://www.w3.org/2000/svg" version="1.1" xmlns:xlink="http://www.w3.org/1999/xlink" xmlns:svgjs="http://svgjs.com/svgjs" width="798" height="608.35"><svg id="Layer_2" xmlns="http://www.w3.org/2000/svg" viewBox="0 0 798 608.35"><defs><style>.cls-1{fill:#231f20;}</style></defs><path class="cls-1" d="m254.3,358.09c13.3,2.25,5.46,43.88,27.86,87.91,8.54,16.8,19.31,29.65,30.55,43.08,13.17,15.73,28.05,30.41,34.7,35.38,2.56,1.92,4.9,4.12,7.38,6.14,5.16,4.22,6.65,5.29,7.2,7.6.45,1.88-.06,3.81-1.07,7.67-.74,2.83-1.12,4.25-2.02,4.98-2.72,2.22-8.55-.72-11.19-2.08-19-9.82-25.19-14.06-25.19-14.06-13.08-8.96-19.82-13.6-27.73-20.73-8.76-7.9-14.62-14.6-18.34-19-19.29-22.85-31.88-49.82-31.88-49.82-1.78-3.79-2.98-6.6-3.23-7.21-6.85-16.14-11.73-39.93-11.73-39.93-3.57-17.43-2.94-20.37-1.7-22.94,2.62-5.43,7.74-8.77,10.97-10.88,5.66-3.69,11.24-6.82,15.42-6.12Z"></path><path class="cls-1" d="m357.21,370.23c-.01.14-.03.33-.06.57-.84,7.64-1.58,14.41-5.73,17.49-1.05.78-2.97,1.8-6.27,1.78h-6.46c-1.45-.04-4.02-.3-6.43-1.88-5.98-3.93-6.47-13.09-6.56-17.77-.54-28.57,11.29-79.97-.62-109.9-4.11-10.32-9.19-13.43-12.44-14.59-7.17-2.57-14.5,1.08-17.71,2.74-17.68,9.12-30.96,32.16-34.51,56.08-2.21,14.92-.61,29.87-9.05,35.49-1.18.78-5.72,3.5-11.99,5.63-5.61,1.91-8.41,2.86-9.82,2.22-7.4-3.37.05-42.19,14.95-76.62,4.3-9.94,14.31-31.26,33.41-52.64,11.06-12.38,18.99-17.87,27.1-21.48,6.63-2.95,20.77-9.3,34.72-3.95,3.69,1.42,12.52,5.62,20.67,20.54,11.74,21.5,9.91,42.97,3.07,102.94-2.59,22.73-4.8,41.28-6.26,53.37Z"></path><path class="cls-1" d="m330.96,119.3c2.98,25.16,3.8,33.96,10.74,45.78,2.89,4.93,6.34,8.58,9.34,11.21,10.68,9.47,21.36,18.95,32.04,28.42-2.78,196.14-5.09,335.68-6.34,346.48-.14,1.18-.86,6.08,1.98,9.23,2.18,2.42,6.24,2.67,14.26,3.08,6.84.35,10.31.49,12.5-1.14,4.15-3.09,4.05-9.67,4.06-11.52.05-12.52,5.98-144.55,14.28-327.27,2.25,1.8,10.33,7.81,18.34,5.49,9.82-2.86,11.89-16.36,13.86-29.12,1.07-6.92.59-11.47-2.23-14.55-1.39-1.51-3.01-2.31-4.2-2.76-65.11-28.94-83.55-57.32-87.32-78.97-1.83-10.5-2.72-33.92-19.84-51.56-6.05-6.23-16.28-13.96-20.35-11.27-3.42,2.25-.28,10.6,1.87,23.29,1.58,9.35,3.39,24.63,7.01,55.18Z"></path><path class="cls-1" d="m605.51,460.61s-22.9,42.58-61.85,71.79c0,0-22.8,17.1-50.14,26.78-3.99,1.41-3.63,1.23-11.69,3.23-12.18,3.03-13.79,2-14.45,1.21-1.08-1.28-.04-4.66,2.05-11.41,1.24-4.01,2.13-5.73,3.7-7.13,1.03-.92,2.29-1.62,3.87-2.53,2.45-1.42,4.39-2.21,4.64-2.31,2.16-.92,30.35-15.91,54.93-39.23,40.63-38.54,52.5-90.17,55.54-103.76,4.64-20.79,4.97-38.05,4.82-47.75-.24-16.33-.12-31.44-6.93-49.34-3.99-10.48-9.85-25.02-23.77-31.55,0,0-12.13-5.69-27.35-1.81-54.26,13.85-75.2,180.68-88.44,286.46-.42,3.33-.74,5.98-.89,7.2-.18.78-.55,1.85-1.37,2.82-2.34,2.76-6.08,1.98-16.62,1.53-9.29-.4-13.47-.36-14.56-2.82-.23-.53-.21-1.45-.14-3.27.14-3.93.77-6.84.78-6.92,1.94-8.99,9.77-71.89,10.46-77.45,1.18-9.5,1.75-14.99,2.23-19.06,5.44-46.36,32.19-220.71,34.96-247.95,1.69-16.6-2.89-26.98-4.38-30.05-.12-.26-.23-.46-.27-.55,0,0,0,0,0,0,0,0,0,0,0,0,0,0,0,0,0,0-16.45-42.11-54.03-40.12-65.96-78.8-2.65-8.6-8.6-32.03,1.81-54.31,1.08-2.3,7.3-15.28,12.99-14.85,6.14.46,3.87,22,17.69,48.06,9.41,17.73,18.92,23.72,23.86,26.24,6.41,3.26,11.41,5.81,17.38,4.63,15.43-3.02,13.98-26.19,36.49-45.94,9.08-7.96,23.21-16.36,27.83-12.61,4.98,4.05-5.7,18.6-12.44,47.41-3.23,13.81-13.1,56.01,6.81,73.67,3.3,2.92,6.23,4.13,8.98,5.38,30.25,13.83,58.68,42.52,73.3,66.94,12.21,20.38,14.85,38.34,18.34,62.13,3.77,25.64,13.23,89.99-22.22,155.91Z"></path></svg></svg></g></svg>